<svg id="Sample_Counties" data-name="Sample Counties" xmlns="http://www.w3.org/2000/svg" width="723" height="753" viewBox="0 0 723 753">
  <g id="County_1_obj">
    <circle cx="94.64" cy="162.37" r="80.5" fill="#7986cb"/>
    <path d="M141.64,113.87a78.5,78.5,0,1,1-78.5,78.5,78.58,78.58,0,0,1,78.5-78.5m0-4a82.5,82.5,0,1,0,82.5,82.5,82.5,82.5,0,0,0-82.5-82.5Z" transform="translate(-47 -30)"/>
  </g>
  <g id="County_2_obj">
    <circle cx="541.5" cy="141.5" r="139.5" fill="#7986cb"/>
    <path d="M588.5,34a137.5,137.5,0,0,1,97.23,234.73A137.5,137.5,0,0,1,491.27,74.27,136.6,136.6,0,0,1,588.5,34m0-4A141.5,141.5,0,1,0,730,171.5,141.5,141.5,0,0,0,588.5,30Z" transform="translate(-47 -30)"/>
  </g>
  <g id="County_3_obj">
    <circle cx="115.5" cy="457.5" r="113.87" fill="#7986cb"/>
    <path d="M162.5,375.27a112.23,112.23,0,1,1-79.36,32.87,111.49,111.49,0,0,1,79.36-32.87m0-3.27A115.5,115.5,0,1,0,278,487.5,115.5,115.5,0,0,0,162.5,372Z" transform="translate(-47 -30)"/>
  </g>
  <g id="County_4_obj">
    <circle cx="414" cy="446" r="161" fill="#7986cb"/>
    <path d="M461,317a159,159,0,1,1-112.43,46.57A158,158,0,0,1,461,317m0-4A163,163,0,1,0,624,476,163,163,0,0,0,461,313Z" transform="translate(-47 -30)"/>
  </g>
  <g id="County_5_obj">
    <circle cx="618.5" cy="648.5" r="102.5" fill="#7986cb"/>
    <path d="M665.5,578A100.5,100.5,0,1,1,565,678.5,100.61,100.61,0,0,1,665.5,578m0-4A104.5,104.5,0,1,0,770,678.5,104.5,104.5,0,0,0,665.5,574Z" transform="translate(-47 -30)"/>
  </g>
  <g>
    <path d="M97.37,183.67A6.75,6.75,0,0,1,100,181a7.74,7.74,0,0,1,3.83-.95,7.38,7.38,0,0,1,4.5,1.38,6.73,6.73,0,0,1,2.5,3.78h-4a3.22,3.22,0,0,0-1.25-1.4,3.7,3.7,0,0,0-4.53.67,5.14,5.14,0,0,0,0,6.17,3.7,3.7,0,0,0,4.53.67,3.22,3.22,0,0,0,1.25-1.4h4a6.67,6.67,0,0,1-2.5,3.77,7.44,7.44,0,0,1-4.5,1.37,7.74,7.74,0,0,1-3.83-.95,6.79,6.79,0,0,1-2.63-2.66,8.44,8.44,0,0,1,0-7.78Z" transform="translate(-47 -30)"/>
    <path d="M115.27,194.39a5.41,5.41,0,0,1-2.17-2.1,6.31,6.31,0,0,1-.78-3.19,6.11,6.11,0,0,1,.8-3.18,5.4,5.4,0,0,1,2.18-2.11,6.91,6.91,0,0,1,6.22,0,5.4,5.4,0,0,1,2.18,2.11,6.68,6.68,0,0,1,0,6.36,5.47,5.47,0,0,1-2.21,2.11,6.57,6.57,0,0,1-3.11.73A6.45,6.45,0,0,1,115.27,194.39Zm4.85-3.13a3,3,0,0,0,.72-2.16,3,3,0,0,0-.7-2.16,2.26,2.26,0,0,0-1.73-.76,2.33,2.33,0,0,0-1.75.74,3.78,3.78,0,0,0,0,4.34,2.21,2.21,0,0,0,1.72.76A2.32,2.32,0,0,0,120.12,191.26Z" transform="translate(-47 -30)"/>
    <path d="M138,183.24V195h-3.59v-1.6a4,4,0,0,1-1.48,1.25,4.5,4.5,0,0,1-2.07.47,4.59,4.59,0,0,1-2.37-.6,4,4,0,0,1-1.6-1.73,5.84,5.84,0,0,1-.57-2.67v-6.84h3.57v6.36a2.59,2.59,0,0,0,.61,1.83,2.15,2.15,0,0,0,1.64.65,2.18,2.18,0,0,0,1.66-.65,2.55,2.55,0,0,0,.61-1.83v-6.36Z" transform="translate(-47 -30)"/>
    <path d="M151,184.45a5.19,5.19,0,0,1,1.23,3.66V195h-3.57v-6.37a2.58,2.58,0,0,0-.61-1.82,2.39,2.39,0,0,0-3.28,0,2.58,2.58,0,0,0-.61,1.82V195h-3.59V183.24h3.59v1.55a4,4,0,0,1,1.47-1.23,4.7,4.7,0,0,1,2.08-.45A4.27,4.27,0,0,1,151,184.45Z" transform="translate(-47 -30)"/>
    <path d="M161.25,191.91V195h-1.83a4.48,4.48,0,0,1-3-1,4,4,0,0,1-1.09-3.12v-4.66h-1.43v-3h1.43v-2.86h3.59v2.86h2.36v3h-2.36v4.7a1,1,0,0,0,.26.76,1.17,1.17,0,0,0,.84.23Z" transform="translate(-47 -30)"/>
    <path d="M175.21,183.24l-7.35,17.28H164l2.69-6-4.77-11.32h4l2.71,7.33,2.69-7.33Z" transform="translate(-47 -30)"/>
    <path d="M180.23,183v-3.34h5.82V195h-3.74V183Z" transform="translate(-47 -30)"/>
  </g>
  <g>
    <path d="M509.08,156.59A11.62,11.62,0,0,1,513.6,152a13.05,13.05,0,0,1,6.57-1.64,12.62,12.62,0,0,1,7.71,2.37,11.47,11.47,0,0,1,4.28,6.48h-6.77a5.48,5.48,0,0,0-2.14-2.41,6,6,0,0,0-3.15-.83,5.9,5.9,0,0,0-4.61,2,8.85,8.85,0,0,0,0,10.59,5.9,5.9,0,0,0,4.61,2,6,6,0,0,0,3.15-.83,5.48,5.48,0,0,0,2.14-2.41h6.77a11.36,11.36,0,0,1-4.28,6.46,12.68,12.68,0,0,1-7.71,2.36,13.15,13.15,0,0,1-6.57-1.64,11.66,11.66,0,0,1-4.52-4.56,14.52,14.52,0,0,1,0-13.33Z" transform="translate(-47 -30)"/>
    <path d="M539.77,175a9.19,9.19,0,0,1-3.7-3.59,11.7,11.7,0,0,1,0-10.93,9.33,9.33,0,0,1,3.75-3.62,11.88,11.88,0,0,1,10.65,0,9.27,9.27,0,0,1,3.75,3.62,11.47,11.47,0,0,1,0,10.91,9.32,9.32,0,0,1-3.78,3.61,11.21,11.21,0,0,1-5.35,1.27A11,11,0,0,1,539.77,175Zm8.32-5.36a5.13,5.13,0,0,0,1.24-3.71,5.25,5.25,0,0,0-1.2-3.7,4.09,4.09,0,0,0-6,0,5.28,5.28,0,0,0-1.19,3.72,5.34,5.34,0,0,0,1.17,3.71,3.8,3.8,0,0,0,2.93,1.3A4,4,0,0,0,548.09,169.6Z" transform="translate(-47 -30)"/>
    <path d="M578.71,155.85v20.09h-6.16V173.2a6.69,6.69,0,0,1-2.54,2.14,7.71,7.71,0,0,1-3.54.81,8,8,0,0,1-4.07-1,7,7,0,0,1-2.74-3,10.24,10.24,0,0,1-1-4.58V155.85h6.12v10.91a4.39,4.39,0,0,0,1.05,3.13,3.65,3.65,0,0,0,2.8,1.11,3.74,3.74,0,0,0,2.85-1.11,4.38,4.38,0,0,0,1-3.13V155.85Z" transform="translate(-47 -30)"/>
    <path d="M601,157.92a8.93,8.93,0,0,1,2.11,6.28v11.74H597V165a4.39,4.39,0,0,0-1-3.13,4.07,4.07,0,0,0-5.61,0,4.39,4.39,0,0,0-1.05,3.13v10.91h-6.15V155.85h6.15v2.66a6.59,6.59,0,0,1,2.52-2.1,8,8,0,0,1,3.57-.78A7.29,7.29,0,0,1,601,157.92Z" transform="translate(-47 -30)"/>
    <path d="M618.6,170.72v5.22h-3.14a7.68,7.68,0,0,1-5.22-1.64c-1.24-1.09-1.87-2.87-1.87-5.35v-8h-2.45v-5.11h2.45V151h6.16v4.9h4V161h-4V169a1.68,1.68,0,0,0,.43,1.3,2.08,2.08,0,0,0,1.44.4Z" transform="translate(-47 -30)"/>
    <path d="M642.54,155.85l-12.6,29.63h-6.63l4.61-10.23-8.17-19.4h6.87l4.65,12.56,4.61-12.56Z" transform="translate(-47 -30)"/>
    <path d="M652.69,170.1q3.52-2.91,5.56-4.78a23.52,23.52,0,0,0,3.44-3.93,7.13,7.13,0,0,0,1.4-4,3.57,3.57,0,0,0-.68-2.31,2.51,2.51,0,0,0-2-.82,2.55,2.55,0,0,0-2.15,1,4.79,4.79,0,0,0-.77,2.9H651.5a10.17,10.17,0,0,1,1.31-5.11,7.65,7.65,0,0,1,3.28-3,10.32,10.32,0,0,1,4.52-1c2.85,0,5,.73,6.46,2.2a7.77,7.77,0,0,1,2.18,5.72,11.25,11.25,0,0,1-2.63,7.15,39,39,0,0,1-6.7,6.42h9.72v5H651.57V171C652.39,170.36,652.76,170.06,652.69,170.1Z" transform="translate(-47 -30)"/>
  </g>
  <g>
    <path d="M109.15,477.56a7.68,7.68,0,0,1,3-3.05,8.73,8.73,0,0,1,4.38-1.09,8.44,8.44,0,0,1,5.14,1.58,7.64,7.64,0,0,1,2.85,4.32H120a3.69,3.69,0,0,0-1.43-1.61,4.06,4.06,0,0,0-2.1-.55,3.92,3.92,0,0,0-3.07,1.32,5.87,5.87,0,0,0,0,7.06,3.92,3.92,0,0,0,3.07,1.32,4.06,4.06,0,0,0,2.1-.55A3.69,3.69,0,0,0,120,484.7h4.51a7.59,7.59,0,0,1-2.85,4.31,8.5,8.5,0,0,1-5.14,1.57,8.84,8.84,0,0,1-4.38-1.09,7.72,7.72,0,0,1-3-3,9.69,9.69,0,0,1,0-8.89Z" transform="translate(-47 -30)"/>
    <path d="M129.61,489.81a6.13,6.13,0,0,1-2.47-2.4,7.18,7.18,0,0,1-.9-3.65,7.07,7.07,0,0,1,.91-3.63,6.23,6.23,0,0,1,2.49-2.42,7.94,7.94,0,0,1,7.11,0,6.17,6.17,0,0,1,2.49,2.42,7.6,7.6,0,0,1,0,7.27,6.16,6.16,0,0,1-2.52,2.41,7.51,7.51,0,0,1-3.56.84A7.4,7.4,0,0,1,129.61,489.81Zm5.54-3.58a3.43,3.43,0,0,0,.83-2.47,3.53,3.53,0,0,0-.8-2.47,2.74,2.74,0,0,0-4,0,4.29,4.29,0,0,0,0,5,2.52,2.52,0,0,0,2,.87A2.66,2.66,0,0,0,135.15,486.23Z" transform="translate(-47 -30)"/>
    <path d="M155.56,477.07v13.39h-4.1v-1.83a4.48,4.48,0,0,1-1.69,1.43,5.16,5.16,0,0,1-2.37.54,5.37,5.37,0,0,1-2.71-.68,4.66,4.66,0,0,1-1.82-2,6.79,6.79,0,0,1-.65-3.05v-7.82h4.08v7.27a2.94,2.94,0,0,0,.7,2.09,2.44,2.44,0,0,0,1.87.74,2.47,2.47,0,0,0,1.89-.74,2.94,2.94,0,0,0,.7-2.09v-7.27Z" transform="translate(-47 -30)"/>
    <path d="M170.43,478.45a5.91,5.91,0,0,1,1.41,4.18v7.83h-4.08v-7.27a3,3,0,0,0-.7-2.09,2.71,2.71,0,0,0-3.74,0,2.9,2.9,0,0,0-.7,2.09v7.27h-4.1V477.07h4.1v1.77a4.36,4.36,0,0,1,1.68-1.4,5.27,5.27,0,0,1,2.38-.52A4.84,4.84,0,0,1,170.43,478.45Z" transform="translate(-47 -30)"/>
    <path d="M182.16,487v3.48h-2.09a5.14,5.14,0,0,1-3.48-1.09,4.53,4.53,0,0,1-1.25-3.57v-5.33h-1.63v-3.4h1.63V473.8h4.1v3.27h2.69v3.4h-2.69v5.38a1.11,1.11,0,0,0,.29.86,1.38,1.38,0,0,0,1,.27Z" transform="translate(-47 -30)"/>
    <path d="M198.12,477.07l-8.4,19.75H185.3l3.07-6.82-5.45-12.93h4.59l3.09,8.37,3.08-8.37Z" transform="translate(-47 -30)"/>
    <path d="M206.11,473.92a6.24,6.24,0,0,1,4.29-1.39,7.12,7.12,0,0,1,3.09.62,4.44,4.44,0,0,1,2.6,4.13,4,4,0,0,1-2.64,3.94v.09a4.13,4.13,0,0,1,3,4.23,5,5,0,0,1-.68,2.63,4.67,4.67,0,0,1-2,1.78,6.86,6.86,0,0,1-3.11.65,7,7,0,0,1-4.6-1.41,5.49,5.49,0,0,1-1.81-4.28h4a2.4,2.4,0,0,0,.59,1.67,2.22,2.22,0,0,0,1.69.61,1.92,1.92,0,0,0,1.45-.54,2,2,0,0,0,.51-1.42,1.89,1.89,0,0,0-.73-1.67,4.09,4.09,0,0,0-2.34-.52h-.77v-3.33h.77a4,4,0,0,0,2-.42,1.58,1.58,0,0,0,.76-1.5,1.83,1.83,0,0,0-.48-1.35,1.78,1.78,0,0,0-1.32-.48,1.67,1.67,0,0,0-1.36.55,2.41,2.41,0,0,0-.51,1.37h-4A5.25,5.25,0,0,1,206.11,473.92Z" transform="translate(-47 -30)"/>
  </g>
  <g>
    <path d="M352.57,456.12a15.49,15.49,0,0,1,6-6.1,17.47,17.47,0,0,1,8.76-2.18A16.75,16.75,0,0,1,377.62,451a15.27,15.27,0,0,1,5.72,8.64h-9a7.27,7.27,0,0,0-2.85-3.21,8,8,0,0,0-4.2-1.11,7.88,7.88,0,0,0-6.15,2.64,11.78,11.78,0,0,0,0,14.12,7.85,7.85,0,0,0,6.15,2.64,8,8,0,0,0,4.2-1.11,7.27,7.27,0,0,0,2.85-3.21h9a15.1,15.1,0,0,1-5.72,8.61,16.81,16.81,0,0,1-10.27,3.15,17.47,17.47,0,0,1-8.76-2.19,15.48,15.48,0,0,1-6-6.07,19.37,19.37,0,0,1,0-17.78Z" transform="translate(-47 -30)"/>
    <path d="M393.49,480.62a12.35,12.35,0,0,1-4.95-4.8,14.34,14.34,0,0,1-1.79-7.3,14.19,14.19,0,0,1,1.82-7.27,12.44,12.44,0,0,1,5-4.82,15.86,15.86,0,0,1,14.21,0,12.44,12.44,0,0,1,5,4.82,15.38,15.38,0,0,1,0,14.55,12.56,12.56,0,0,1-5,4.82,15.09,15.09,0,0,1-7.13,1.68A14.78,14.78,0,0,1,393.49,480.62Zm11.09-7.15a8.32,8.32,0,0,0,0-9.89,5.44,5.44,0,0,0-7.94,0,7,7,0,0,0-1.58,5,7.13,7.13,0,0,0,1.56,5,5.05,5.05,0,0,0,3.91,1.73A5.37,5.37,0,0,0,404.58,473.47Z" transform="translate(-47 -30)"/>
    <path d="M445.4,455.13v26.79h-8.21v-3.65a9,9,0,0,1-3.38,2.85,10.35,10.35,0,0,1-4.73,1.08,10.57,10.57,0,0,1-5.42-1.36,9.28,9.28,0,0,1-3.65-4,13.41,13.41,0,0,1-1.3-6.1V455.13h8.16v14.55a5.9,5.9,0,0,0,1.39,4.17,5.51,5.51,0,0,0,7.54,0,5.85,5.85,0,0,0,1.39-4.17V455.13Z" transform="translate(-47 -30)"/>
    <path d="M475.14,457.89c1.87,2,2.81,4.83,2.81,8.38v15.65h-8.16V467.37a5.86,5.86,0,0,0-1.4-4.17,5.44,5.44,0,0,0-7.48,0,5.86,5.86,0,0,0-1.4,4.17v14.55H451.3V455.13h8.21v3.55a8.58,8.58,0,0,1,3.36-2.8,10.66,10.66,0,0,1,4.75-1A9.75,9.75,0,0,1,475.14,457.89Z" transform="translate(-47 -30)"/>
    <path d="M498.58,475v7h-4.17a10.19,10.19,0,0,1-7-2.19q-2.51-2.18-2.5-7.13V462h-3.26v-6.82H485V448.6h8.21v6.53h5.38V462h-5.38V472.7a2.23,2.23,0,0,0,.58,1.73,2.81,2.81,0,0,0,1.92.53Z" transform="translate(-47 -30)"/>
    <path d="M530.5,455.13l-16.8,39.51h-8.83L511,481l-10.9-25.87h9.17l6.19,16.75,6.14-16.75Z" transform="translate(-47 -30)"/>
    <path d="M543,475.68v-6.63l15.17-21.69h9.17v21.21h3.93v7.11h-3.93v6.24h-8.21v-6.24Zm16.71-19.3-8.07,12.19h8.07Z" transform="translate(-47 -30)"/>
  </g>
  <g>
    <path d="M618.35,669.8a6.75,6.75,0,0,1,2.63-2.67,7.74,7.74,0,0,1,3.83-1,7.38,7.38,0,0,1,4.5,1.38,6.73,6.73,0,0,1,2.5,3.78h-3.95a3.22,3.22,0,0,0-1.25-1.4,3.54,3.54,0,0,0-1.84-.49,3.45,3.45,0,0,0-2.69,1.16,5.14,5.14,0,0,0,0,6.17,3.45,3.45,0,0,0,2.69,1.16,3.53,3.53,0,0,0,1.84-.48,3.31,3.31,0,0,0,1.25-1.41h3.95a6.67,6.67,0,0,1-2.5,3.77,7.44,7.44,0,0,1-4.5,1.37,7.64,7.64,0,0,1-3.83-1,6.79,6.79,0,0,1-2.63-2.66,8.44,8.44,0,0,1,0-7.78Z" transform="translate(-47 -30)"/>
    <path d="M636.25,680.52a5.41,5.41,0,0,1-2.17-2.1,6.31,6.31,0,0,1-.78-3.19,6.13,6.13,0,0,1,.8-3.18,5.4,5.4,0,0,1,2.18-2.11,6.91,6.91,0,0,1,6.22,0,5.4,5.4,0,0,1,2.18,2.11,6.23,6.23,0,0,1,.8,3.18,6.16,6.16,0,0,1-.81,3.18,5.47,5.47,0,0,1-2.21,2.11,6.58,6.58,0,0,1-3.11.74A6.46,6.46,0,0,1,636.25,680.52Zm4.85-3.13a3,3,0,0,0,.72-2.16,3,3,0,0,0-.7-2.16,2.26,2.26,0,0,0-1.73-.76,2.33,2.33,0,0,0-1.75.74,3.78,3.78,0,0,0,0,4.34,2.21,2.21,0,0,0,1.72.76A2.32,2.32,0,0,0,641.1,677.39Z" transform="translate(-47 -30)"/>
    <path d="M659,669.37v11.72h-3.59v-1.6a4,4,0,0,1-1.48,1.25,4.47,4.47,0,0,1-2.07.47,4.68,4.68,0,0,1-2.37-.59,4,4,0,0,1-1.6-1.74,5.83,5.83,0,0,1-.57-2.66v-6.85h3.57v6.36a2.59,2.59,0,0,0,.61,1.83,2.15,2.15,0,0,0,1.64.65,2.18,2.18,0,0,0,1.66-.65,2.55,2.55,0,0,0,.61-1.83v-6.36Z" transform="translate(-47 -30)"/>
    <path d="M672,670.58a5.19,5.19,0,0,1,1.23,3.66v6.85h-3.57v-6.37a2.58,2.58,0,0,0-.61-1.82,2.39,2.39,0,0,0-3.28,0,2.58,2.58,0,0,0-.61,1.82v6.37h-3.59V669.37h3.59v1.55a3.92,3.92,0,0,1,1.47-1.22,4.57,4.57,0,0,1,2.08-.46A4.27,4.27,0,0,1,672,670.58Z" transform="translate(-47 -30)"/>
    <path d="M682.23,678v3.05H680.4a4.43,4.43,0,0,1-3-1,3.93,3.93,0,0,1-1.1-3.12v-4.66h-1.43v-3h1.43v-2.86h3.59v2.86h2.36v3h-2.36v4.71a1,1,0,0,0,.26.75,1.17,1.17,0,0,0,.84.23Z" transform="translate(-47 -30)"/>
    <path d="M696.19,669.37l-7.35,17.28H685l2.69-6-4.77-11.32h4l2.71,7.33,2.69-7.33Z" transform="translate(-47 -30)"/>
    <path d="M712.38,668.89h-6.55v2.9A2.94,2.94,0,0,1,707,671a4.37,4.37,0,0,1,1.63-.3,4.5,4.5,0,0,1,2.62.72,4.15,4.15,0,0,1,1.52,1.85,6.19,6.19,0,0,1,.48,2.45,5.4,5.4,0,0,1-1.38,3.9,5.17,5.17,0,0,1-3.91,1.44,6.79,6.79,0,0,1-2.92-.58,4.41,4.41,0,0,1-2.64-4h3.5a1.82,1.82,0,0,0,1.94,1.51,1.76,1.76,0,0,0,1.47-.63,2.7,2.7,0,0,0,.48-1.68,2.21,2.21,0,0,0-.51-1.57,1.86,1.86,0,0,0-1.46-.55,1.92,1.92,0,0,0-1.18.35,1.6,1.6,0,0,0-.61.91h-3.46v-9.13h9.8Z" transform="translate(-47 -30)"/>
  </g>
</svg>
